<svg xmlns="http://www.w3.org/2000/svg" xmlns:xlink="http://www.w3.org/1999/xlink" id="Layer_1" data-name="Layer 1" viewBox="0 0 1853.87 1047"><defs><style>.cls-1{fill:url(#linear-gradient);}.cls-2{fill:url(#linear-gradient-2);}.cls-3{fill:#fff;}.cls-4{fill:url(#linear-gradient-3);}.cls-5{fill:#3c3f99;}</style><linearGradient id="linear-gradient" x1="424.17" y1="1048.07" x2="424.17" y2="1" gradientUnits="userSpaceOnUse"><stop offset="0" stop-color="#0199d2"></stop><stop offset="1" stop-color="#2d6fba"></stop></linearGradient><linearGradient id="linear-gradient-2" x1="733.33" y1="1047.89" x2="733.33" y2="3" xlink:href="#linear-gradient"></linearGradient><linearGradient id="linear-gradient-3" x1="523.5" y1="1047" x2="523.5" y2="0" xlink:href="#linear-gradient"></linearGradient></defs><title>logitek-logo-colour</title><path class="cls-1" d="M424.17,454.76q-40.23,0-69.13,29.72t-28.89,71.88A101.84,101.84,0,0,0,339.33,607a93.29,93.29,0,0,0,35.6,36.29,101.25,101.25,0,0,0,98.48,0A93.47,93.47,0,0,0,509,607a102,102,0,0,0,13.18-50.68q0-42.17-29-71.88T424.17,454.76Z" transform="translate(0 0)"></path><path class="cls-2" d="M784.59,467.2a98.07,98.07,0,0,0-49.07-12.9,101.92,101.92,0,0,0-50.91,13.25,95.88,95.88,0,0,0-36.86,36.63,100.26,100.26,0,0,0-13.36,50.57q0,41.24,27.64,68.19t71.65,26.95q44.46,0,71.53-26.72t27.07-70.27q0-28.33-12.44-50.56A90.75,90.75,0,0,0,784.59,467.2Z" transform="translate(0 0)"></path><path class="cls-3" d="M1045.21,567H1132V539h-85.23Q1046.35,553.1,1045.21,567Z" transform="translate(0 0)"></path><path class="cls-4" d="M1005,539h41.77q.23-7.72.23-15.5A521.3,521.3,0,0,0,988.07,282a83,83,0,0,1-98.58-132.8A521.8,521.8,0,0,0,523.5,0C234.38,0,0,234.38,0,523.5S234.38,1047,523.5,1047c274.47,0,499.6-211.23,521.71-480H1005ZM257,680H93V341h34V647H257Zm261.33-32.53q-36.59,39.28-94,39.28-57.7,0-94.28-39.28t-36.58-91.8q0-52.06,34.62-90.31,38.09-42.15,96.24-42.16,57.92,0,96,41.93,34.62,38.25,34.62,90.54,0,52.51-36.62,91.8ZM863,629.57q0,52.71-9.14,77.11-12.57,34.52-43.66,53.17t-74.74,18.64q-32,0-57.49-9.12T636.48,744.9q-16-15.36-29.48-44.9h34.74q14.19,24.86,36.62,36.83t55.61,12q32.71,0,55.27-12.27t32.15-30.86q9.61-18.59,9.61-60V632.79a121.37,121.37,0,0,1-44.16,35.33A130.32,130.32,0,0,1,667,663.29q-30.21-17.14-46.68-46.15T603.8,553.38a128.49,128.49,0,0,1,17.2-64.8,126.45,126.45,0,0,1,47.47-47.53q30.33-17.49,64-17.49a118.35,118.35,0,0,1,52,11.62Q808.58,446.81,831,473.5V430h32ZM959,680H927V429h32Z" transform="translate(0 0)"></path><polygon class="cls-5" points="1707.84 548.73 1845.8 429 1798.37 429 1682 530.3 1682 333 1650 333 1650 680 1682 680 1682 566.99 1808.41 680 1853.87 680 1707.84 548.73"></polygon><path class="cls-5" d="M1562.54,545q-.51,28.65-6,44.53a97.67,97.67,0,0,1-17.83,30.7,107,107,0,0,1-28.93,24.38q-34.35,19.85-71.69,9.15t-60-48L1573.45,493q-26.09-44.25-66.81-60.38-57.45-23-113,9.09-53.91,31.13-62.33,90.79-6.7,47,17.14,88.26,25.35,43.89,75.4,61.41T1527.05,669q24-13.85,38.73-32.07a122.74,122.74,0,0,0,21.88-41q7.11-22.73,5.56-52.16Zm-195.61,34.85q-8.7-34.89-.55-59.54,11.1-33.79,43.07-52.26a99.91,99.91,0,0,1,41.67-13.16q22.31-2,40.71,5.23t36.9,26.31Z" transform="translate(0 0)"></path><polygon class="cls-5" points="1243 337 1211 337 1211 430 1167 430 1167 457 1211 457 1211 680 1244 680 1244 458 1295 458 1295 430 1243 430 1243 337"></polygon><circle class="cls-5" cx="942.5" cy="208.5" r="49.5"></circle></svg>