<svg xmlns:dc="http://purl.org/dc/elements/1.1/" xmlns:cc="http://creativecommons.org/ns#" xmlns:rdf="http://www.w3.org/1999/02/22-rdf-syntax-ns#" xmlns:svg="http://www.w3.org/2000/svg" xmlns="http://www.w3.org/2000/svg" xmlns:sodipodi="http://sodipodi.sourceforge.net/DTD/sodipodi-0.dtd" xmlns:inkscape="http://www.inkscape.org/namespaces/inkscape" width="107.38544mm" height="12.831428mm" viewBox="0 0 107.38546 12.831427" id="svg3345" inkscape:version="0.92.3 (2405546, 2018-03-11)" sodipodi:docname="nanotera-logo.svg"><defs id="defs3339"></defs><metadata></metadata><g inkscape:label="Calque 1" inkscape:groupmode="layer" id="layer1" transform="translate(282.76834,-6.1155457)"><g id="g78" transform="matrix(0.23405189,0,0,-0.23405189,-270.12041,6.1155461)"><path d="M 0,0 V -54.822 H -20.833 L -42.292,-5.403 V -54.822 H -54.039 V 0 h 20.754 l 21.537,-49.574 V 0 Z" style="fill:#000000;fill-opacity:1;fill-rule:nonzero;stroke:none" id="path80" inkscape:connector-curvature="0"></path></g><g id="g82" transform="matrix(0.23405189,0,0,-0.23405189,-260.07633,13.92422)"><path d="M 0,0 -8.537,28.43 -17.073,0 Z m 3.133,-10.338 h -23.261 l -3.367,-11.121 h -12.766 l 18.404,54.822 H 0.861 L 19.266,-21.459 H 6.5 Z" style="fill:#000000;fill-opacity:1;fill-rule:nonzero;stroke:none" id="path84" inkscape:connector-curvature="0"></path></g><g id="g86" transform="matrix(0.23405189,0,0,-0.23405189,-241.36222,6.1155461)"><path d="m 0,0 v -54.822 h -20.832 l -21.46,49.419 V -54.822 H -54.039 V 0 h 20.754 l 21.537,-49.574 V 0 Z" style="fill:#000000;fill-opacity:1;fill-rule:nonzero;stroke:none" id="path88" inkscape:connector-curvature="0"></path></g><g id="g90" transform="matrix(0.23405189,0,0,-0.23405189,-214.13054,8.6086676)"><path d="M 0,0 H -16.916 V -44.171 H -29.212 V 0 H -46.207 V 10.651 H 0 Z" style="fill:#000000;fill-opacity:1;fill-rule:nonzero;stroke:none" id="path92" inkscape:connector-curvature="0"></path></g><g id="g94" transform="matrix(0.23405189,0,0,-0.23405189,-202.47326,16.52711)"><path d="m 0,0 v -10.338 h -41.978 v 54.822 h 41.43 V 34.225 H -29.682 V 22.79 H -3.994 V 12.53 H -29.682 V 0 Z" style="fill:#000000;fill-opacity:1;fill-rule:nonzero;stroke:none" id="path96" inkscape:connector-curvature="0"></path></g><g id="g98" transform="matrix(0.23405189,0,0,-0.23405189,-197.56172,11.907862)"><path d="m 0,0 h 13.705 c 5.561,0 9.164,2.897 9.164,7.519 0,4.463 -3.603,7.283 -9.164,7.283 H 0 Z M 27.019,-14.725 34.93,-30.074 H 20.832 l -9.789,20.049 H 0 v -20.049 h -12.296 v 54.822 h 26.628 c 12.139,0 20.754,-6.5 20.754,-17.309 0,-10.181 -7.048,-16.211 -17.308,-17.307 3.603,-0.314 7.44,-1.332 9.241,-4.857" style="fill:#000000;fill-opacity:1;fill-rule:nonzero;stroke:none" id="path100" inkscape:connector-curvature="0"></path></g><g id="g102" transform="matrix(0.23405189,0,0,-0.23405189,-179.89214,13.92422)"><path d="M 0,0 -8.537,28.43 -17.073,0 Z m 3.133,-10.338 h -23.261 l -3.367,-11.121 h -12.766 l 18.404,54.822 H 0.861 L 19.266,-21.459 H 6.5 Z" style="fill:#000000;fill-opacity:1;fill-rule:nonzero;stroke:none" id="path104" inkscape:connector-curvature="0"></path></g><g id="g106" transform="matrix(0.23405189,0,0,-0.23405189,-232.99002,16.811015)"><path d="m 0,0 c -10.098,0 -18.284,8.187 -18.284,18.284 0,10.099 8.186,18.284 18.284,18.284 10.098,0 18.284,-8.185 18.284,-18.284 C 18.284,8.187 10.098,0 0,0 M -27.409,-9.125 H 27.41 v 54.818 h -54.819 z" style="fill:#000000;fill-opacity:1;fill-rule:nonzero;stroke:none" id="path108" inkscape:connector-curvature="0"></path></g></g></svg>